# xmcd
#
# Track frame offsets: 
#        150
#        35393
#        61587
#        89587
#        115286
#        133275
#        165902
#        185866
#        232817
#
# Disc length: 3374 seconds
#
# Revision: 0
# Processed by: cddbd v1.4PL0 Copyright (c) Steve Scherf et al.
# Submitted via: ExactAudioCopy v0.90b3
#
DISCID=720d2c09
DTITLE=The Bondi Cigars - down in the valley
DYEAR=2001
DGENRE=Blues
TTITLE0=Path Is Clear
TTITLE1=Leaving Thing
TTITLE2=Life After You
TTITLE3=Intensive Care
TTITLE4=All I Want Is Everything
TTITLE5=Don't Bite The Hand That Feeds You
TTITLE6=Cry To Me
TTITLE7=Howling At The moon
TTITLE8=Key To Your Heart
EXTD=
EXTT0=
EXTT1=
EXTT2=
EXTT3=
EXTT4=
EXTT5=
EXTT6=
EXTT7=
EXTT8=
PLAYORDER=
